STARTFONT 2.1
FONT -HP-HP System-Medium-R-Normal-Sans-10-100-72-72-P-60-ISO8859-8
SIZE 10 72 72
FONTBOUNDINGBOX 10 13 0 -3

STARTPROPERTIES 27
COPYRIGHT "(c) Copyright 1995, Hewlett Packard Company"
NOTICE "Created by the User Interaction Design Group, June 1995."
NOTICE "Hewlett Packard Company, 3000 Hanover St., Palo Alto, CA 94303, USA"
FONTNAME_REGISTRY ""
FOUNDRY "HP"
FAMILY_NAME "HP System"
WEIGHT_NAME "Medium"
SLANT "R"
ADD_STYLE_NAME "Sans"
SETWIDTH_NAME "Normal"
PIXEL_SIZE 10
POINT_SIZE 100
RESOLUTION_X 72
RESOLUTION_Y 72
SPACING "P"
AVERAGE_WIDTH 60
CHARSET_REGISTRY "ISO8859"
CHARSET_ENCODING "8"
CHARSET_COLLECTIONS "ISO8859-8"
FULL_NAME "HP SystemSans13"
CAP_HEIGHT 8
X_HEIGHT 6
WEIGHT 10
QUAD_WIDTH 6
DEFAULT_CHAR 32
FONT_DESCENT 3
FONT_ASCENT 10
ENDPROPERTIES

CHARS 151

STARTCHAR PrintableSpace
ENCODING 32
SWIDTH 300 0
DWIDTH 3 0
BBX 3 13 0 -3
BITMAP
00
00
00
00
00
00
00
00
00
00
00
00
00
ENDCHAR

STARTCHAR Exclamation
ENCODING 33
SWIDTH 300 0
DWIDTH 3 0
BBX 1 13 1 -3
BITMAP
00
80
80
80
80
80
80
00
00
80
80
00
00
ENDCHAR

STARTCHAR NeutrlDblQuote
ENCODING 34
SWIDTH 400 0
DWIDTH 4 0
BBX 3 13 1 -3
BITMAP
00
A0
A0
A0
00
00
00
00
00
00
00
00
00
ENDCHAR

STARTCHAR NumberSign
ENCODING 35
SWIDTH 600 0
DWIDTH 6 0
BBX 5 13 1 -3
BITMAP
00
50
50
50
F8
50
50
F8
50
50
50
00
00
ENDCHAR

STARTCHAR DollarSign
ENCODING 36
SWIDTH 600 0
DWIDTH 6 0
BBX 5 13 1 -3
BITMAP
20
20
70
A8
A0
60
30
28
A8
70
20
20
00
ENDCHAR

STARTCHAR PerCentSign
ENCODING 37
SWIDTH 1000 0
DWIDTH 10 0
BBX 9 13 1 -3
BITMAP
0000
6200
9200
9400
6400
0800
0800
1300
1480
2480
2300
0000
0000
ENDCHAR

STARTCHAR Ampersand
ENCODING 38
SWIDTH 700 0
DWIDTH 7 0
BBX 6 13 1 -3
BITMAP
00
78
80
80
88
7C
88
88
88
8C
78
00
00
ENDCHAR

STARTCHAR SingleCloseQut
ENCODING 39
SWIDTH 400 0
DWIDTH 4 0
BBX 3 13 1 -3
BITMAP
00
60
40
80
00
00
00
00
00
00
00
00
00
ENDCHAR

STARTCHAR OpenParen
ENCODING 40
SWIDTH 400 0
DWIDTH 4 0
BBX 3 13 1 -3
BITMAP
20
40
80
80
80
80
80
80
80
80
40
20
00
ENDCHAR

STARTCHAR CloseParen
ENCODING 41
SWIDTH 400 0
DWIDTH 4 0
BBX 3 13 1 -3
BITMAP
80
40
20
20
20
20
20
20
20
20
40
80
00
ENDCHAR

STARTCHAR Asterisk
ENCODING 42
SWIDTH 800 0
DWIDTH 8 0
BBX 5 13 2 -3
BITMAP
00
00
00
00
20
A8
70
A8
20
00
00
00
00
ENDCHAR

STARTCHAR PlusSign
ENCODING 43
SWIDTH 800 0
DWIDTH 8 0
BBX 5 13 2 -3
BITMAP
00
00
00
00
20
20
F8
20
20
00
00
00
00
ENDCHAR

STARTCHAR Comma
ENCODING 44
SWIDTH 400 0
DWIDTH 4 0
BBX 3 13 1 -3
BITMAP
00
00
00
00
00
00
00
00
60
40
80
00
00
ENDCHAR

STARTCHAR Hyphen
ENCODING 45
SWIDTH 800 0
DWIDTH 8 0
BBX 5 13 2 -3
BITMAP
00
00
00
00
00
00
F8
00
00
00
00
00
00
ENDCHAR

STARTCHAR Period
ENCODING 46
SWIDTH 300 0
DWIDTH 3 0
BBX 2 13 1 -3
BITMAP
00
00
00
00
00
00
00
00
C0
C0
00
00
00
ENDCHAR

STARTCHAR Slash
ENCODING 47
SWIDTH 800 0
DWIDTH 8 0
BBX 6 13 1 -3
BITMAP
04
04
08
08
10
10
20
20
40
40
80
80
00
ENDCHAR

STARTCHAR Zero
ENCODING 48
SWIDTH 600 0
DWIDTH 6 0
BBX 5 13 1 -3
BITMAP
00
00
70
88
88
88
88
88
88
70
00
00
00
ENDCHAR

STARTCHAR One
ENCODING 49
SWIDTH 600 0
DWIDTH 6 0
BBX 3 13 1 -3
BITMAP
00
00
20
60
A0
20
20
20
20
20
00
00
00
ENDCHAR

STARTCHAR Two
ENCODING 50
SWIDTH 600 0
DWIDTH 6 0
BBX 5 13 1 -3
BITMAP
00
00
70
88
08
10
20
40
80
F8
00
00
00
ENDCHAR

STARTCHAR Three
ENCODING 51
SWIDTH 600 0
DWIDTH 6 0
BBX 5 13 1 -3
BITMAP
00
00
70
88
08
30
08
08
88
70
00
00
00
ENDCHAR

STARTCHAR Four
ENCODING 52
SWIDTH 600 0
DWIDTH 6 0
BBX 5 13 1 -3
BITMAP
00
00
10
30
50
50
90
F8
10
10
00
00
00
ENDCHAR

STARTCHAR Five
ENCODING 53
SWIDTH 600 0
DWIDTH 6 0
BBX 5 13 1 -3
BITMAP
00
00
F8
80
80
F0
08
08
88
70
00
00
00
ENDCHAR

STARTCHAR Six
ENCODING 54
SWIDTH 600 0
DWIDTH 6 0
BBX 5 13 1 -3
BITMAP
00
00
70
88
80
F0
88
88
88
70
00
00
00
ENDCHAR

STARTCHAR Seven
ENCODING 55
SWIDTH 600 0
DWIDTH 6 0
BBX 5 13 1 -3
BITMAP
00
00
F8
08
10
10
20
20
40
40
00
00
00
ENDCHAR

STARTCHAR Eight
ENCODING 56
SWIDTH 600 0
DWIDTH 6 0
BBX 5 13 1 -3
BITMAP
00
00
70
88
88
70
88
88
88
70
00
00
00
ENDCHAR

STARTCHAR Nine
ENCODING 57
SWIDTH 600 0
DWIDTH 6 0
BBX 5 13 1 -3
BITMAP
00
00
70
88
88
88
78
08
88
70
00
00
00
ENDCHAR

STARTCHAR Colon
ENCODING 58
SWIDTH 500 0
DWIDTH 5 0
BBX 2 13 2 -3
BITMAP
00
00
00
00
C0
C0
00
00
C0
C0
00
00
00
ENDCHAR

STARTCHAR Simicolon
ENCODING 59
SWIDTH 500 0
DWIDTH 5 0
BBX 3 13 1 -3
BITMAP
00
00
00
00
60
60
00
00
60
40
80
00
00
ENDCHAR

STARTCHAR LessThanSign
ENCODING 60
SWIDTH 800 0
DWIDTH 8 0
BBX 6 13 2 -3
BITMAP
00
00
00
00
0C
30
C0
30
0C
00
00
00
00
ENDCHAR

STARTCHAR EqualsSign
ENCODING 61
SWIDTH 800 0
DWIDTH 8 0
BBX 5 13 2 -3
BITMAP
00
00
00
00
00
F8
00
F8
00
00
00
00
00
ENDCHAR

STARTCHAR GreatrThanSign
ENCODING 62
SWIDTH 800 0
DWIDTH 8 0
BBX 6 13 2 -3
BITMAP
00
00
00
00
C0
30
0C
30
C0
00
00
00
00
ENDCHAR

STARTCHAR QuestionMark
ENCODING 63
SWIDTH 500 0
DWIDTH 5 0
BBX 4 13 1 -3
BITMAP
00
60
90
10
30
60
40
40
00
40
40
00
00
ENDCHAR

STARTCHAR CommerclAtSign
ENCODING 64
SWIDTH 900 0
DWIDTH 9 0
BBX 7 13 1 -3
BITMAP
00
3C
42
9A
A6
A6
A6
A6
9A
40
3C
00
00
ENDCHAR

STARTCHAR A
ENCODING 65
SWIDTH 800 0
DWIDTH 8 0
BBX 7 13 1 -3
BITMAP
00
00
10
10
28
28
44
7C
82
82
00
00
00
ENDCHAR

STARTCHAR B
ENCODING 66
SWIDTH 600 0
DWIDTH 6 0
BBX 5 13 1 -3
BITMAP
00
00
F0
88
88
F0
88
88
88
F0
00
00
00
ENDCHAR

STARTCHAR C
ENCODING 67
SWIDTH 700 0
DWIDTH 7 0
BBX 6 13 1 -3
BITMAP
00
00
38
44
80
80
80
80
44
38
00
00
00
ENDCHAR

STARTCHAR D
ENCODING 68
SWIDTH 700 0
DWIDTH 7 0
BBX 6 13 1 -3
BITMAP
00
00
F0
88
84
84
84
84
88
F0
00
00
00
ENDCHAR

STARTCHAR E
ENCODING 69
SWIDTH 600 0
DWIDTH 6 0
BBX 5 13 1 -3
BITMAP
00
00
F8
80
80
F8
80
80
80
F8
00
00
00
ENDCHAR

STARTCHAR F
ENCODING 70
SWIDTH 500 0
DWIDTH 5 0
BBX 4 13 1 -3
BITMAP
00
00
F0
80
80
F0
80
80
80
80
00
00
00
ENDCHAR

STARTCHAR G
ENCODING 71
SWIDTH 700 0
DWIDTH 7 0
BBX 6 13 1 -3
BITMAP
00
00
38
44
80
80
9C
84
44
38
00
00
00
ENDCHAR

STARTCHAR H
ENCODING 72
SWIDTH 700 0
DWIDTH 7 0
BBX 6 13 1 -3
BITMAP
00
00
84
84
84
FC
84
84
84
84
00
00
00
ENDCHAR

STARTCHAR I
ENCODING 73
SWIDTH 200 0
DWIDTH 2 0
BBX 1 13 1 -3
BITMAP
00
00
80
80
80
80
80
80
80
80
00
00
00
ENDCHAR

STARTCHAR J
ENCODING 74
SWIDTH 500 0
DWIDTH 5 0
BBX 4 13 1 -3
BITMAP
00
00
10
10
10
10
10
10
90
60
00
00
00
ENDCHAR

STARTCHAR K
ENCODING 75
SWIDTH 600 0
DWIDTH 6 0
BBX 5 13 1 -3
BITMAP
00
00
88
90
A0
C0
C0
A0
90
88
00
00
00
ENDCHAR

STARTCHAR L
ENCODING 76
SWIDTH 500 0
DWIDTH 5 0
BBX 4 13 1 -3
BITMAP
00
00
80
80
80
80
80
80
80
F0
00
00
00
ENDCHAR

STARTCHAR M
ENCODING 77
SWIDTH 800 0
DWIDTH 8 0
BBX 7 13 1 -3
BITMAP
00
00
82
C6
C6
AA
AA
92
92
82
00
00
00
ENDCHAR

STARTCHAR N
ENCODING 78
SWIDTH 700 0
DWIDTH 7 0
BBX 5 13 1 -3
BITMAP
00
00
88
C8
C8
A8
A8
98
98
88
00
00
00
ENDCHAR

STARTCHAR O
ENCODING 79
SWIDTH 700 0
DWIDTH 7 0
BBX 7 13 1 -3
BITMAP
00
00
38
44
82
82
82
82
44
38
00
00
00
ENDCHAR

STARTCHAR P
ENCODING 80
SWIDTH 600 0
DWIDTH 6 0
BBX 5 13 1 -3
BITMAP
00
00
F0
88
88
88
F0
80
80
80
00
00
00
ENDCHAR

STARTCHAR Q
ENCODING 81
SWIDTH 800 0
DWIDTH 8 0
BBX 7 13 1 -3
BITMAP
00
00
38
44
82
82
82
92
4C
3C
02
00
00
ENDCHAR

STARTCHAR R
ENCODING 82
SWIDTH 600 0
DWIDTH 6 0
BBX 5 13 1 -3
BITMAP
00
00
F0
88
88
88
F0
88
88
88
00
00
00
ENDCHAR

STARTCHAR S
ENCODING 83
SWIDTH 600 0
DWIDTH 6 0
BBX 5 13 1 -3
BITMAP
00
00
70
88
80
60
30
08
88
70
00
00
00
ENDCHAR

STARTCHAR T
ENCODING 84
SWIDTH 600 0
DWIDTH 6 0
BBX 5 13 1 -3
BITMAP
00
00
F8
20
20
20
20
20
20
20
00
00
00
ENDCHAR

STARTCHAR U
ENCODING 85
SWIDTH 700 0
DWIDTH 7 0
BBX 6 13 1 -3
BITMAP
00
00
84
84
84
84
84
84
84
78
00
00
00
ENDCHAR

STARTCHAR V
ENCODING 86
SWIDTH 800 0
DWIDTH 8 0
BBX 7 13 1 -3
BITMAP
00
00
82
82
44
44
28
28
10
10
00
00
00
ENDCHAR

STARTCHAR W
ENCODING 87
SWIDTH 1000 0
DWIDTH 10 0
BBX 9 13 1 -3
BITMAP
0000
0000
8080
8880
8880
4900
5500
5500
2200
2200
0000
0000
0000
ENDCHAR

STARTCHAR X
ENCODING 88
SWIDTH 800 0
DWIDTH 8 0
BBX 7 13 1 -3
BITMAP
00
00
82
44
28
10
28
44
82
82
00
00
00
ENDCHAR

STARTCHAR Y
ENCODING 89
SWIDTH 800 0
DWIDTH 8 0
BBX 7 13 1 -3
BITMAP
00
00
82
82
44
28
10
10
10
10
00
00
00
ENDCHAR

STARTCHAR Z
ENCODING 90
SWIDTH 600 0
DWIDTH 6 0
BBX 5 13 1 -3
BITMAP
00
00
F8
08
10
20
40
80
80
F8
00
00
00
ENDCHAR

STARTCHAR OpenBracket
ENCODING 91
SWIDTH 400 0
DWIDTH 4 0
BBX 3 13 1 -3
BITMAP
00
E0
80
80
80
80
80
80
80
80
E0
00
00
ENDCHAR

STARTCHAR BackSlash
ENCODING 92
SWIDTH 600 0
DWIDTH 6 0
BBX 6 13 1 -3
BITMAP
80
80
40
40
20
20
10
10
08
08
04
04
00
ENDCHAR

STARTCHAR CloseBracket
ENCODING 93
SWIDTH 400 0
DWIDTH 4 0
BBX 3 13 1 -3
BITMAP
00
E0
20
20
20
20
20
20
20
20
E0
00
00
ENDCHAR

STARTCHAR Circumflex
ENCODING 94
SWIDTH 900 0
DWIDTH 9 0
BBX 6 13 2 -3
BITMAP
00
00
30
48
84
00
00
00
00
00
00
00
00
ENDCHAR

STARTCHAR Underscore
ENCODING 95
SWIDTH 500 0
DWIDTH 5 0
BBX 5 13 0 -3
BITMAP
00
00
00
00
00
00
00
00
00
00
F8
00
00
ENDCHAR

STARTCHAR SingleOpenQuot
ENCODING 96
SWIDTH 400 0
DWIDTH 4 0
BBX 3 13 1 -3
BITMAP
00
20
40
C0
00
00
00
00
00
00
00
00
00
ENDCHAR

STARTCHAR a
ENCODING 97
SWIDTH 600 0
DWIDTH 6 0
BBX 5 13 1 -3
BITMAP
00
00
00
00
70
08
78
88
98
68
00
00
00
ENDCHAR

STARTCHAR b
ENCODING 98
SWIDTH 600 0
DWIDTH 6 0
BBX 5 13 1 -3
BITMAP
00
00
80
80
B0
C8
88
88
C8
B0
00
00
00
ENDCHAR

STARTCHAR c
ENCODING 99
SWIDTH 600 0
DWIDTH 6 0
BBX 5 13 1 -3
BITMAP
00
00
00
00
70
88
80
80
88
70
00
00
00
ENDCHAR

STARTCHAR d
ENCODING 100
SWIDTH 600 0
DWIDTH 6 0
BBX 5 13 1 -3
BITMAP
00
00
08
08
68
98
88
88
98
68
00
00
00
ENDCHAR

STARTCHAR e
ENCODING 101
SWIDTH 600 0
DWIDTH 6 0
BBX 5 13 1 -3
BITMAP
00
00
00
00
70
88
F8
80
88
70
00
00
00
ENDCHAR

STARTCHAR f
ENCODING 102
SWIDTH 400 0
DWIDTH 4 0
BBX 3 13 1 -3
BITMAP
00
00
20
40
40
E0
40
40
40
40
00
00
00
ENDCHAR

STARTCHAR g
ENCODING 103
SWIDTH 600 0
DWIDTH 6 0
BBX 5 13 1 -3
BITMAP
00
00
00
00
68
98
88
88
98
68
08
08
70
ENDCHAR

STARTCHAR h
ENCODING 104
SWIDTH 600 0
DWIDTH 6 0
BBX 5 13 1 -3
BITMAP
00
00
80
80
B0
C8
88
88
88
88
00
00
00
ENDCHAR

STARTCHAR i
ENCODING 105
SWIDTH 200 0
DWIDTH 2 0
BBX 1 13 1 -3
BITMAP
00
00
80
00
80
80
80
80
80
80
00
00
00
ENDCHAR

STARTCHAR j
ENCODING 106
SWIDTH 200 0
DWIDTH 2 0
BBX 2 13 0 -3
BITMAP
00
00
40
00
40
40
40
40
40
40
40
40
80
ENDCHAR

STARTCHAR k
ENCODING 107
SWIDTH 500 0
DWIDTH 5 0
BBX 4 13 1 -3
BITMAP
00
00
80
80
90
A0
C0
C0
A0
90
00
00
00
ENDCHAR

STARTCHAR l
ENCODING 108
SWIDTH 200 0
DWIDTH 2 0
BBX 1 13 1 -3
BITMAP
00
00
80
80
80
80
80
80
80
80
00
00
00
ENDCHAR

STARTCHAR m
ENCODING 109
SWIDTH 800 0
DWIDTH 8 0
BBX 7 13 1 -3
BITMAP
00
00
00
00
A4
DA
92
92
92
92
00
00
00
ENDCHAR

STARTCHAR n
ENCODING 110
SWIDTH 600 0
DWIDTH 6 0
BBX 5 13 1 -3
BITMAP
00
00
00
00
B0
C8
88
88
88
88
00
00
00
ENDCHAR

STARTCHAR o
ENCODING 111
SWIDTH 600 0
DWIDTH 6 0
BBX 5 13 1 -3
BITMAP
00
00
00
00
70
88
88
88
88
70
00
00
00
ENDCHAR

STARTCHAR p
ENCODING 112
SWIDTH 600 0
DWIDTH 6 0
BBX 5 13 1 -3
BITMAP
00
00
00
00
B0
C8
88
88
C8
B0
80
80
80
ENDCHAR

STARTCHAR q
ENCODING 113
SWIDTH 600 0
DWIDTH 6 0
BBX 5 13 1 -3
BITMAP
00
00
00
00
68
98
88
88
98
68
08
08
08
ENDCHAR

STARTCHAR r
ENCODING 114
SWIDTH 500 0
DWIDTH 5 0
BBX 4 13 1 -3
BITMAP
00
00
00
00
B0
C0
80
80
80
80
00
00
00
ENDCHAR

STARTCHAR s
ENCODING 115
SWIDTH 500 0
DWIDTH 5 0
BBX 4 13 1 -3
BITMAP
00
00
00
00
70
80
60
10
10
E0
00
00
00
ENDCHAR

STARTCHAR t
ENCODING 116
SWIDTH 400 0
DWIDTH 4 0
BBX 3 13 1 -3
BITMAP
00
00
00
40
40
E0
40
40
40
20
00
00
00
ENDCHAR

STARTCHAR u
ENCODING 117
SWIDTH 600 0
DWIDTH 6 0
BBX 5 13 1 -3
BITMAP
00
00
00
00
88
88
88
88
98
68
00
00
00
ENDCHAR

STARTCHAR v
ENCODING 118
SWIDTH 600 0
DWIDTH 6 0
BBX 5 13 1 -3
BITMAP
00
00
00
00
88
88
50
50
20
20
00
00
00
ENDCHAR

STARTCHAR w
ENCODING 119
SWIDTH 800 0
DWIDTH 8 0
BBX 7 13 1 -3
BITMAP
00
00
00
00
92
92
AA
6C
44
44
00
00
00
ENDCHAR

STARTCHAR x
ENCODING 120
SWIDTH 700 0
DWIDTH 7 0
BBX 6 13 1 -3
BITMAP
00
00
00
00
84
48
30
30
48
84
00
00
00
ENDCHAR

STARTCHAR y
ENCODING 121
SWIDTH 600 0
DWIDTH 6 0
BBX 5 13 1 -3
BITMAP
00
00
00
00
88
88
88
50
50
20
20
C0
00
ENDCHAR

STARTCHAR z
ENCODING 122
SWIDTH 500 0
DWIDTH 5 0
BBX 4 13 1 -3
BITMAP
00
00
00
00
F0
10
20
40
80
F0
00
00
00
ENDCHAR

STARTCHAR OpenBrace
ENCODING 123
SWIDTH 600 0
DWIDTH 6 0
BBX 5 13 1 -3
BITMAP
00
18
20
20
20
C0
20
20
20
20
18
00
00
ENDCHAR

STARTCHAR LongVertMark
ENCODING 124
SWIDTH 400 0
DWIDTH 4 0
BBX 1 13 2 -3
BITMAP
00
80
80
80
80
00
80
80
80
80
80
00
00
ENDCHAR

STARTCHAR CloseBrace
ENCODING 125
SWIDTH 600 0
DWIDTH 6 0
BBX 5 13 1 -3
BITMAP
00
C0
20
20
20
18
20
20
20
20
C0
00
00
ENDCHAR

STARTCHAR OneWavyLine
ENCODING 126
SWIDTH 800 0
DWIDTH 8 0
BBX 7 13 1 -3
BITMAP
00
00
00
00
20
72
9C
08
00
00
00
00
00
ENDCHAR

STARTCHAR MediumShading
ENCODING 127
SWIDTH 800 0
DWIDTH 8 0
BBX 8 13 0 -3
BITMAP
AA
55
AA
55
AA
55
AA
55
AA
55
AA
55
AA
ENDCHAR

STARTCHAR CentSign
ENCODING 162
SWIDTH 600 0
DWIDTH 6 0
BBX 5 13 1 -3
BITMAP
00
10
10
70
A8
A0
A0
A8
70
40
40
00
00
ENDCHAR

STARTCHAR SterlingSign
ENCODING 163
SWIDTH 600 0
DWIDTH 6 0
BBX 5 13 1 -3
BITMAP
00
00
30
48
40
F0
40
F0
40
F8
00
00
00
ENDCHAR

STARTCHAR CurrencySymbol
ENCODING 164
SWIDTH 700 0
DWIDTH 7 0
BBX 6 13 1 -3
BITMAP
00
00
84
78
48
48
78
84
00
00
00
00
00
ENDCHAR

STARTCHAR Yensign
ENCODING 165
SWIDTH 600 0
DWIDTH 6 0
BBX 5 13 1 -3
BITMAP
00
00
88
88
50
F8
20
F8
20
20
00
00
00
ENDCHAR

STARTCHAR BrokenVertMark
ENCODING 166
SWIDTH 400 0
DWIDTH 4 0
BBX 1 13 2 -3
BITMAP
00
80
80
80
80
80
00
80
80
80
80
00
00
ENDCHAR

STARTCHAR SectionMark
ENCODING 167
SWIDTH 500 0
DWIDTH 5 0
BBX 4 13 1 -3
BITMAP
00
00
60
90
C0
60
B0
D0
60
30
90
60
00
ENDCHAR

STARTCHAR diaeresisAccnt
ENCODING 168
SWIDTH 500 0
DWIDTH 5 0
BBX 3 13 1 -3
BITMAP
00
00
A0
A0
00
00
00
00
00
00
00
00
00
ENDCHAR

STARTCHAR CopyrightSign
ENCODING 169
SWIDTH 700 0
DWIDTH 7 0
BBX 6 13 1 -3
BITMAP
00
00
78
84
B4
A4
B4
84
78
00
00
00
00
ENDCHAR

STARTCHAR DblOpenAnglQut
ENCODING 171
SWIDTH 700 0
DWIDTH 7 0
BBX 6 13 1 -3
BITMAP
00
00
00
24
48
90
90
48
24
00
00
00
00
ENDCHAR

STARTCHAR NotSign
ENCODING 172
SWIDTH 800 0
DWIDTH 8 0
BBX 5 13 2 -3
BITMAP
00
00
00
00
00
00
F8
08
08
00
00
00
00
ENDCHAR

STARTCHAR SoftHyphen
ENCODING 173
SWIDTH 800 0
DWIDTH 8 0
BBX 5 13 2 -3
BITMAP
00
00
00
00
00
00
F8
00
00
00
00
00
00
ENDCHAR

STARTCHAR RegisTradeMark
ENCODING 174
SWIDTH 800 0
DWIDTH 8 0
BBX 7 13 1 -3
BITMAP
00
00
7C
82
B2
AA
B2
AA
82
7C
00
00
00
ENDCHAR

STARTCHAR macronAccent
ENCODING 175
SWIDTH 800 0
DWIDTH 8 0
BBX 5 13 2 -3
BITMAP
00
00
F8
00
00
00
00
00
00
00
00
00
00
ENDCHAR

STARTCHAR DegreeSign
ENCODING 176
SWIDTH 500 0
DWIDTH 5 0
BBX 4 13 1 -3
BITMAP
00
00
60
90
90
60
00
00
00
00
00
00
00
ENDCHAR

STARTCHAR PlusOverMinus
ENCODING 177
SWIDTH 800 0
DWIDTH 8 0
BBX 5 13 2 -3
BITMAP
00
00
20
20
F8
20
20
00
F8
00
00
00
00
ENDCHAR

STARTCHAR SupNumberTwo
ENCODING 178
SWIDTH 500 0
DWIDTH 5 0
BBX 4 13 1 -3
BITMAP
00
00
60
90
20
40
F0
00
00
00
00
00
00
ENDCHAR

STARTCHAR SupNumberThree
ENCODING 179
SWIDTH 500 0
DWIDTH 5 0
BBX 4 13 1 -3
BITMAP
00
00
E0
10
60
10
E0
00
00
00
00
00
00
ENDCHAR

STARTCHAR acuteAccent
ENCODING 180
SWIDTH 500 0
DWIDTH 5 0
BBX 3 13 1 -3
BITMAP
00
00
60
C0
00
00
00
00
00
00
00
00
00
ENDCHAR

STARTCHAR muGreek
ENCODING 181
SWIDTH 700 0
DWIDTH 7 0
BBX 6 13 1 -3
BITMAP
00
00
00
00
24
24
24
48
48
74
80
80
00
ENDCHAR

STARTCHAR ParagraphSign
ENCODING 182
SWIDTH 700 0
DWIDTH 7 0
BBX 6 13 1 -3
BITMAP
00
00
7C
E8
E8
E8
68
28
28
28
00
00
00
ENDCHAR

STARTCHAR middleDot
ENCODING 183
SWIDTH 300 0
DWIDTH 3 0
BBX 1 13 1 -3
BITMAP
00
00
00
00
00
80
80
00
00
00
00
00
00
ENDCHAR

STARTCHAR cedilla
ENCODING 184
SWIDTH 700 0
DWIDTH 7 0
BBX 4 13 2 -3
BITMAP
00
00
00
00
00
00
00
00
00
00
20
10
E0
ENDCHAR

STARTCHAR SupNumberOne
ENCODING 185
SWIDTH 500 0
DWIDTH 5 0
BBX 2 13 2 -3
BITMAP
00
00
40
C0
40
40
40
00
00
00
00
00
00
ENDCHAR

STARTCHAR DblClosAnglQut
ENCODING 187
SWIDTH 700 0
DWIDTH 7 0
BBX 6 13 1 -3
BITMAP
00
00
00
90
48
24
24
48
90
00
00
00
00
ENDCHAR

STARTCHAR FracOneFourth
ENCODING 188
SWIDTH 1000 0
DWIDTH 10 0
BBX 9 13 1 -3
BITMAP
0000
0000
4400
C400
4800
4900
5300
1500
2780
2100
0000
0000
0000
ENDCHAR

STARTCHAR FracOneHalf
ENCODING 189
SWIDTH 1000 0
DWIDTH 10 0
BBX 9 13 1 -3
BITMAP
0000
0000
4400
C400
4800
4B00
5480
1100
2200
2780
0000
0000
0000
ENDCHAR

STARTCHAR FracThreeFour
ENCODING 190
SWIDTH 1000 0
DWIDTH 10 0
BBX 9 13 1 -3
BITMAP
0000
0000
C400
2400
4800
2900
D300
1500
2780
2100
0000
0000
0000
ENDCHAR

STARTCHAR MultiplySign
ENCODING 215
SWIDTH 800 0
DWIDTH 8 0
BBX 5 13 2 -3
BITMAP
00
00
00
00
88
50
20
50
88
00
00
00
00
ENDCHAR

STARTCHAR alef
ENCODING 224
SWIDTH 700 0
DWIDTH 6 0
BBX 5 13 1 -3
BITMAP
00
00
00
88
C8
48
70
90
98
88
00
00
00
ENDCHAR

STARTCHAR bet
ENCODING 225
SWIDTH 700 0
DWIDTH 6 0
BBX 5 13 1 -3
BITMAP
00
00
00
E0
10
10
10
10
10
F8
00
00
00
ENDCHAR

STARTCHAR gimel
ENCODING 226
SWIDTH 700 0
DWIDTH 5 0
BBX 4 13 1 -3
BITMAP
00
00
00
C0
20
20
20
60
90
90
00
00
00
ENDCHAR

STARTCHAR dalet
ENCODING 227
SWIDTH 700 0
DWIDTH 6 0
BBX 5 13 1 -3
BITMAP
00
00
00
F8
10
10
10
10
10
10
00
00
00
ENDCHAR

STARTCHAR he
ENCODING 228
SWIDTH 700 0
DWIDTH 5 0
BBX 4 13 1 -3
BITMAP
00
00
00
E0
10
10
90
90
90
90
00
00
00
ENDCHAR

STARTCHAR waw
ENCODING 229
SWIDTH 300 0
DWIDTH 2 0
BBX 1 13 1 -3
BITMAP
00
00
00
80
80
80
80
80
80
80
00
00
00
ENDCHAR

STARTCHAR zayin
ENCODING 230
SWIDTH 300 0
DWIDTH 4 0
BBX 3 13 1 -3
BITMAP
00
00
00
E0
40
40
40
40
40
40
00
00
00
ENDCHAR

STARTCHAR het
ENCODING 231
SWIDTH 700 0
DWIDTH 5 0
BBX 4 13 1 -3
BITMAP
00
00
00
E0
90
90
90
90
90
90
00
00
00
ENDCHAR

STARTCHAR tet
ENCODING 232
SWIDTH 700 0
DWIDTH 6 0
BBX 5 13 1 -3
BITMAP
00
00
00
90
88
88
88
88
90
60
00
00
00
ENDCHAR

STARTCHAR yod
ENCODING 233
SWIDTH 300 0
DWIDTH 2 0
BBX 1 13 1 -3
BITMAP
00
00
00
80
80
80
80
00
00
00
00
00
00
ENDCHAR

STARTCHAR kaffinal
ENCODING 234
SWIDTH 700 0
DWIDTH 5 0
BBX 4 13 1 -3
BITMAP
00
00
00
E0
10
10
10
10
10
10
10
10
10
ENDCHAR

STARTCHAR kaf
ENCODING 235
SWIDTH 700 0
DWIDTH 5 0
BBX 4 13 1 -3
BITMAP
00
00
00
E0
10
10
10
10
10
E0
00
00
00
ENDCHAR

STARTCHAR lamed
ENCODING 236
SWIDTH 500 0
DWIDTH 5 0
BBX 4 13 1 -3
BITMAP
80
80
80
E0
10
10
20
20
40
40
00
00
00
ENDCHAR

STARTCHAR memfinal
ENCODING 237
SWIDTH 700 0
DWIDTH 5 0
BBX 4 13 1 -3
BITMAP
00
00
00
E0
90
90
90
90
90
F0
00
00
00
ENDCHAR

STARTCHAR mem
ENCODING 238
SWIDTH 700 0
DWIDTH 5 0
BBX 4 13 1 -3
BITMAP
00
00
00
E0
50
90
90
90
90
B0
00
00
00
ENDCHAR

STARTCHAR nunfinal
ENCODING 239
SWIDTH 700 0
DWIDTH 2 0
BBX 1 13 1 -3
BITMAP
00
00
00
80
80
80
80
80
80
80
80
80
80
ENDCHAR

STARTCHAR nun
ENCODING 240
SWIDTH 700 0
DWIDTH 4 0
BBX 3 13 1 -3
BITMAP
00
00
00
40
20
20
20
20
20
E0
00
00
00
ENDCHAR

STARTCHAR samekh
ENCODING 241
SWIDTH 700 0
DWIDTH 5 0
BBX 4 13 1 -3
BITMAP
00
00
00
F0
90
90
90
90
90
60
00
00
00
ENDCHAR

STARTCHAR ayin
ENCODING 242
SWIDTH 700 0
DWIDTH 6 0
BBX 5 13 1 -3
BITMAP
00
00
00
48
48
48
48
48
48
F0
00
00
00
ENDCHAR

STARTCHAR pefinal
ENCODING 243
SWIDTH 700 0
DWIDTH 5 0
BBX 4 13 1 -3
BITMAP
00
00
00
E0
90
90
90
10
10
10
10
10
10
ENDCHAR

STARTCHAR pe
ENCODING 244
SWIDTH 700 0
DWIDTH 5 0
BBX 4 13 1 -3
BITMAP
00
00
00
E0
90
90
90
10
10
F0
00
00
00
ENDCHAR

STARTCHAR zadefinal
ENCODING 245
SWIDTH 700 0
DWIDTH 6 0
BBX 5 13 1 -3
BITMAP
00
00
00
88
C8
48
70
20
30
10
18
08
00
ENDCHAR

STARTCHAR zade
ENCODING 246
SWIDTH 700 0
DWIDTH 6 0
BBX 5 13 1 -3
BITMAP
00
00
00
88
C8
48
70
20
30
F8
00
00
00
ENDCHAR

STARTCHAR kof
ENCODING 247
SWIDTH 700 0
DWIDTH 5 0
BBX 4 13 1 -3
BITMAP
00
00
00
E0
10
10
90
90
90
A0
80
80
80
ENDCHAR

STARTCHAR resh
ENCODING 248
SWIDTH 700 0
DWIDTH 5 0
BBX 4 13 1 -3
BITMAP
00
00
00
E0
10
10
10
10
10
10
00
00
00
ENDCHAR

STARTCHAR shin
ENCODING 249
SWIDTH 700 0
DWIDTH 8 0
BBX 7 13 1 -3
BITMAP
00
00
00
92
92
92
92
92
A4
F8
00
00
00
ENDCHAR

STARTCHAR taw
ENCODING 250
SWIDTH 700 0
DWIDTH 6 0
BBX 5 13 1 -3
BITMAP
00
00
00
F0
48
48
48
48
48
C8
00
00
00
ENDCHAR
ENDFONT
